<svg xmlns="http://www.w3.org/2000/svg" xmlns:xlink="http://www.w3.org/1999/xlink" width="500" zoomAndPan="magnify" viewBox="0 0 375 374.999991" height="500" preserveAspectRatio="xMidYMid meet" version="1.0"><defs><g/><clipPath id="id1"><path d="M 87 219 L 110 219 L 110 225.667969 L 87 225.667969 Z M 87 219 " clip-rule="nonzero"/></clipPath><clipPath id="id2"><path d="M 65 120 L 131.878906 120 L 131.878906 224 L 65 224 Z M 65 120 " clip-rule="nonzero"/></clipPath></defs><path fill="#ffffff" d="M 112.859375 195.871094 C 113.148438 195.917969 113.441406 195.960938 113.730469 196.007812 C 114.039062 194.855469 114.402344 193.71875 114.765625 192.589844 C 114.8125 192.4375 114.59375 192.339844 114.507812 192.457031 C 115.710938 188.054688 117.507812 183.214844 120.65625 180.152344 C 120.828125 179.988281 120.574219 179.746094 120.398438 179.894531 C 116.050781 183.546875 114.070312 190.53125 112.816406 195.859375 L 112.859375 195.871094 " fill-opacity="1" fill-rule="nonzero"/><path fill="#ffffff" d="M 109.75 210.535156 C 109.65625 210.632812 109.359375 210.832031 109.390625 210.988281 L 109.429688 211.027344 C 109.585938 211.058594 109.789062 210.765625 109.882812 210.671875 C 109.96875 210.585938 109.832031 210.449219 109.75 210.535156 " fill-opacity="1" fill-rule="nonzero"/><g clip-path="url(#id1)"><path fill="#ffffff" d="M 108.863281 219.691406 C 106.4375 223.722656 102.300781 224.574219 97.78125 224.566406 C 95.429688 224.558594 87.34375 224.015625 87.738281 220.183594 C 87.75 220.085938 87.585938 220.0625 87.570312 220.160156 C 86.847656 224.359375 93.992188 225.171875 96.730469 225.367188 C 100.253906 225.621094 109.257812 224.964844 109.324219 219.8125 C 109.328125 219.566406 108.988281 219.480469 108.863281 219.691406 " fill-opacity="1" fill-rule="nonzero"/></g><path fill="#ffffff" d="M 112.347656 163.761719 C 112.324219 163.792969 112.300781 163.824219 112.277344 163.855469 L 112.257812 163.878906 C 111.664062 164.628906 111.113281 165.414062 110.585938 166.214844 C 109.953125 166.933594 109.242188 167.582031 108.433594 168.144531 C 105.195312 170.386719 104.964844 166.582031 105.332031 164.203125 C 105.414062 163.660156 104.714844 163.46875 104.511719 163.976562 C 103.703125 166.003906 102.847656 168.132812 101.332031 169.75 C 99.308594 171.90625 97.996094 168.34375 97.722656 167.113281 C 97.652344 166.804688 97.613281 166.484375 97.585938 166.167969 C 97.625 165.367188 97.617188 164.632812 97.609375 164.089844 C 97.605469 163.503906 96.773438 163.527344 96.71875 164.089844 C 96.667969 164.613281 96.652344 165.3125 96.703125 166.070312 C 96.597656 168.367188 96.035156 170.96875 93.34375 170.339844 C 90.660156 169.707031 88.234375 167.328125 86.152344 165.679688 C 85.660156 165.292969 85.058594 165.878906 85.460938 166.367188 C 92.792969 175.210938 95.632812 188.238281 95.929688 199.457031 C 95.945312 199.976562 96.730469 199.976562 96.734375 199.457031 C 96.84375 189.203125 94.023438 177.628906 88.328125 168.769531 C 90.15625 170.191406 92.214844 171.433594 94.335938 171.457031 C 95.976562 171.476562 96.800781 170.25 97.210938 168.734375 C 97.683594 170.082031 98.515625 171.148438 99.945312 171.160156 C 102.015625 171.175781 103.316406 169.070312 104.226562 166.988281 C 104.289062 168.421875 104.792969 169.699219 106.453125 169.835938 C 107.277344 169.90625 108.097656 169.613281 108.871094 169.128906 C 104.808594 176.875 103.292969 186.265625 101.976562 194.636719 C 101.886719 195.21875 102.707031 195.472656 102.878906 194.882812 C 105.636719 185.570312 105.984375 175.347656 111.214844 166.988281 C 111.992188 166.054688 112.640625 165.070312 113.082031 164.324219 C 113.34375 163.878906 112.6875 163.339844 112.347656 163.761719 " fill-opacity="1" fill-rule="nonzero"/><g clip-path="url(#id2)"><path fill="#ffffff" d="M 127.203125 171.496094 C 125.976562 173.710938 124.609375 175.875 123.257812 178.042969 C 125.996094 171.316406 128.28125 164.460938 128.511719 157.097656 C 128.585938 154.609375 128.433594 152.144531 128.113281 149.703125 C 129.089844 153.011719 129.769531 156.429688 129.867188 159.832031 C 129.773438 163.746094 128.929688 167.667969 127.203125 171.496094 Z M 121.125 132.792969 C 120.722656 132.1875 120.320312 131.582031 119.890625 130.996094 C 118.609375 129.246094 117.136719 127.660156 115.511719 126.226562 C 114.660156 125.476562 113.761719 124.210938 112.667969 123.800781 C 112.582031 123.769531 112.457031 123.835938 112.441406 123.929688 C 112.367188 124.347656 112.410156 124.242188 112.601562 124.804688 C 112.671875 125.019531 113.011719 124.929688 112.941406 124.714844 C 112.746094 124.097656 114.046875 125.683594 113.929688 125.554688 C 114.480469 126.179688 115.144531 126.6875 115.753906 127.25 C 116.804688 128.21875 117.746094 129.308594 118.628906 130.4375 C 117.640625 129.644531 116.582031 128.925781 115.417969 128.304688 C 113.058594 127.050781 110.542969 126.3125 107.964844 125.972656 C 105.253906 124.875 102.484375 124.011719 99.445312 123.972656 C 99.277344 123.96875 99.109375 123.992188 98.941406 123.996094 C 98.632812 123.964844 98.332031 123.953125 98.023438 123.933594 C 102.070312 122.796875 106.371094 122.472656 110.523438 123.085938 C 110.753906 123.195312 110.988281 123.300781 111.214844 123.417969 C 111.359375 123.496094 111.464844 123.359375 111.429688 123.238281 C 113.277344 123.578125 115.09375 124.085938 116.832031 124.828125 C 118.949219 125.730469 120.777344 126.933594 122.382812 128.355469 C 123.171875 131.609375 124.089844 134.804688 124.957031 137.992188 C 123.828125 136.121094 122.574219 134.363281 121.125 132.792969 Z M 103.210938 125.785156 C 102.027344 125.648438 100.816406 125.578125 99.578125 125.589844 C 98.589844 125.601562 94.800781 125.632812 91.953125 126.261719 C 92.644531 125.925781 93.34375 125.613281 94.054688 125.320312 C 96.097656 124.761719 98.1875 124.425781 100.269531 124.4375 C 102.558594 124.449219 104.804688 125.058594 106.996094 125.878906 C 105.742188 125.761719 104.476562 125.726562 103.210938 125.785156 Z M 88.621094 129.578125 C 86.308594 130.652344 84.070312 131.964844 81.953125 133.472656 C 83.945312 131.402344 86.210938 129.5625 88.6875 128.03125 C 88.601562 128.273438 88.597656 128.539062 88.691406 128.832031 C 88.71875 128.921875 88.855469 128.882812 88.832031 128.792969 C 88.214844 126.554688 95.890625 126.144531 99.882812 126.109375 C 95.953125 126.699219 92.09375 127.960938 88.621094 129.578125 Z M 79.890625 135.042969 C 77.765625 136.765625 75.804688 138.6875 74.097656 140.808594 C 74.585938 139.640625 75.144531 138.492188 75.773438 137.375 C 78.535156 133.945312 82.113281 131.066406 85.960938 128.800781 C 86.535156 128.460938 87.128906 128.136719 87.734375 127.824219 C 84.742188 129.808594 82.078125 132.253906 79.890625 135.042969 Z M 72.960938 142.308594 C 73.082031 141.820312 73.230469 141.335938 73.375 140.855469 C 73.730469 140.226562 74.128906 139.621094 74.539062 139.023438 C 74.085938 139.941406 73.664062 140.875 73.296875 141.835938 C 73.183594 141.992188 73.078125 142.152344 72.960938 142.308594 Z M 70.046875 147.164062 C 70 147.273438 69.953125 147.382812 69.902344 147.488281 C 70.957031 141.542969 73.347656 135.917969 77.617188 131.4375 C 79.972656 128.964844 82.75 127.191406 85.761719 126 C 83.707031 127.175781 81.75 128.515625 79.945312 129.992188 C 77.011719 132.394531 75.046875 135.28125 73.765625 138.457031 C 72.171875 141.289062 70.945312 144.3125 70.046875 147.164062 Z M 72.65625 166.570312 C 70.113281 163.386719 69.257812 159.410156 69.382812 155.363281 C 69.519531 153.902344 69.828125 152.453125 70.257812 151.035156 C 70.332031 151.054688 70.421875 151.023438 70.425781 150.917969 C 70.433594 150.714844 70.464844 150.523438 70.476562 150.328125 C 70.695312 149.671875 70.9375 149.019531 71.21875 148.382812 C 71.371094 148.03125 71.546875 147.691406 71.714844 147.347656 C 70.941406 151.347656 70.882812 155.558594 71.667969 159.789062 C 71.691406 159.925781 71.894531 159.867188 71.875 159.730469 C 71.492188 157 71.398438 154.269531 71.589844 151.578125 C 71.574219 156.652344 72.191406 161.820312 72.65625 166.570312 Z M 77.164062 133.515625 C 77.71875 132.824219 78.320312 132.15625 78.984375 131.515625 C 80.808594 129.765625 83.011719 128.09375 85.449219 126.628906 C 84.265625 127.398438 83.128906 128.230469 82.074219 129.15625 C 80.238281 130.316406 78.609375 131.8125 77.164062 133.515625 Z M 89.785156 124.765625 C 91.507812 124.386719 93.28125 124.183594 95.0625 124.121094 C 93.960938 124.523438 92.882812 124.976562 91.832031 125.484375 C 89.679688 126.285156 87.605469 127.3125 85.714844 128.382812 C 82.890625 129.980469 80.027344 132.097656 77.527344 134.597656 C 77.566406 134.539062 77.605469 134.480469 77.644531 134.421875 C 78.582031 133.117188 79.621094 131.925781 80.734375 130.828125 C 81.660156 130.003906 82.628906 129.230469 83.65625 128.558594 C 83.761719 128.492188 83.722656 128.363281 83.636719 128.324219 C 85.539062 126.902344 87.605469 125.71875 89.785156 124.765625 Z M 100.949219 121.710938 C 98.484375 121.804688 96.125 122.191406 93.890625 122.816406 C 98.75 121.300781 103.839844 120.875 108.351562 122.253906 C 105.03125 121.988281 101.609375 122.273438 98.273438 123.125 C 97.441406 123.335938 96.617188 123.582031 95.804688 123.859375 C 94.257812 123.855469 92.726562 123.953125 91.222656 124.1875 C 94.320312 122.992188 97.605469 122.230469 100.949219 121.910156 C 101.078125 121.898438 101.082031 121.707031 100.949219 121.710938 Z M 74.03125 173.363281 C 74.980469 176.480469 77.023438 179.257812 78.988281 181.808594 C 79.609375 183.421875 80.449219 184.957031 81.359375 186.457031 C 79.015625 184.246094 76.65625 182.605469 74.730469 179.898438 C 74.382812 179.414062 74.078125 178.902344 73.769531 178.398438 C 74.144531 178.65625 74.527344 178.898438 74.933594 179.125 C 75.0625 179.195312 75.21875 179.011719 75.097656 178.917969 C 74.304688 178.300781 73.585938 177.625 72.90625 176.917969 C 71.875 175.019531 71.027344 173.027344 70.292969 171.003906 C 72.128906 173.585938 74.03125 176.121094 75.804688 178.75 C 75.828125 178.785156 75.886719 178.753906 75.863281 178.71875 C 75.75 178.542969 75.632812 178.375 75.519531 178.203125 C 75.554688 178.238281 75.621094 178.222656 75.605469 178.167969 C 75.042969 176.28125 74.308594 174.464844 73.523438 172.671875 C 73.691406 172.902344 73.859375 173.132812 74.03125 173.363281 Z M 80.480469 181.035156 C 80.507812 181.082031 80.539062 181.125 80.5625 181.167969 C 80.585938 181.210938 80.625 181.214844 80.660156 181.203125 C 81.539062 182.015625 82.332031 182.84375 82.902344 183.722656 C 83.246094 184.253906 83.570312 184.792969 83.882812 185.339844 C 83.925781 185.910156 83.988281 186.480469 84.0625 187.046875 C 82.378906 184.777344 80.554688 182.609375 78.855469 180.359375 C 78.746094 180.023438 78.652344 179.679688 78.566406 179.339844 C 79.214844 179.910156 79.863281 180.46875 80.480469 181.035156 Z M 84.832031 191.003906 C 84.65625 190.730469 84.488281 190.460938 84.320312 190.195312 C 82.835938 187.851562 81.167969 185.507812 79.9375 183 C 81.363281 184.78125 82.84375 186.53125 84.261719 188.328125 C 84.417969 189.222656 84.613281 190.113281 84.832031 191.003906 Z M 86.105469 189.96875 L 86.105469 189.992188 C 85.65625 189.277344 85.171875 188.585938 84.679688 187.898438 C 84.5625 187.347656 84.457031 186.800781 84.371094 186.246094 C 85.019531 187.460938 85.59375 188.703125 86.105469 189.96875 Z M 86.417969 193.664062 C 86.359375 193.5625 86.304688 193.457031 86.246094 193.355469 C 85.796875 192.007812 85.371094 190.65625 85.015625 189.285156 C 85.414062 189.8125 85.789062 190.355469 86.171875 190.894531 C 86.238281 191.820312 86.320312 192.742188 86.417969 193.664062 Z M 86.820312 191.792969 C 88.242188 195.851562 89.035156 200.113281 89.441406 204.410156 C 89.359375 204.367188 89.277344 204.320312 89.191406 204.277344 C 89.125 203.6875 89.039062 203.101562 88.9375 202.519531 C 88.996094 202.53125 89.054688 202.527344 89.117188 202.542969 C 89.179688 202.554688 89.203125 202.472656 89.140625 202.453125 C 89.0625 202.425781 88.988281 202.414062 88.910156 202.394531 C 88.808594 201.847656 88.695312 201.308594 88.5625 200.773438 C 88.613281 198.871094 88.03125 196.980469 87.191406 195.183594 C 87.003906 193.972656 86.8125 192.765625 86.65625 191.566406 C 86.710938 191.640625 86.765625 191.714844 86.820312 191.792969 Z M 88.117188 203.644531 C 88.203125 203.253906 88.265625 202.851562 88.3125 202.449219 L 88.351562 202.445312 C 88.519531 202.992188 88.671875 203.535156 88.824219 204.078125 C 88.582031 203.945312 88.347656 203.800781 88.117188 203.644531 Z M 89.585938 206.183594 C 89.613281 206.542969 90.125 206.542969 90.152344 206.183594 C 90.171875 205.867188 90.167969 205.5625 90.183594 205.25 C 90.234375 205.261719 90.289062 205.269531 90.34375 205.28125 C 91.328125 205.574219 92.328125 205.765625 93.109375 205.929688 C 96.152344 206.5625 99.320312 206.777344 102.429688 206.644531 C 102.550781 206.640625 102.550781 206.464844 102.429688 206.457031 C 100.03125 206.324219 97.171875 206.269531 94.433594 205.839844 C 97.371094 206.097656 100.335938 205.996094 103.074219 205.367188 C 102.863281 205.175781 102.675781 204.953125 102.523438 204.707031 C 103.1875 204.636719 103.84375 204.53125 104.464844 204.441406 C 106.199219 204.1875 108.292969 204.085938 109.890625 203.277344 C 110.296875 203.277344 110.699219 203.289062 111.089844 203.289062 C 112.390625 203.289062 111.917969 205.363281 111.667969 205.878906 C 111.546875 206.125 111.390625 206.3125 111.210938 206.460938 C 110.984375 206.457031 110.757812 206.453125 110.535156 206.453125 C 107.675781 208.003906 103.699219 208.09375 100.710938 207.988281 C 99.851562 207.957031 98.992188 207.898438 98.132812 207.832031 C 98.257812 207.679688 98.378906 207.53125 98.484375 207.359375 C 98.550781 207.246094 98.410156 207.082031 98.296875 207.167969 C 97.988281 207.398438 97.671875 207.589844 97.351562 207.765625 C 96.59375 207.699219 95.839844 207.625 95.089844 207.539062 C 94.882812 207.515625 90.238281 206.890625 90.695312 206.230469 C 90.757812 206.140625 90.609375 206.023438 90.539062 206.113281 C 89.734375 207.132812 93.414062 207.90625 96.054688 208.316406 C 95.359375 208.542969 94.648438 208.683594 93.917969 208.75 C 93.648438 208.691406 93.386719 208.640625 93.117188 208.578125 C 91.550781 208.207031 90.003906 207.730469 88.488281 207.191406 C 87.53125 206.847656 86.597656 206.453125 85.695312 205.984375 C 85.175781 205.714844 84.941406 205.441406 84.894531 205.183594 C 84.941406 205.089844 84.980469 205.015625 84.992188 204.988281 C 85.109375 204.765625 85.246094 204.558594 85.378906 204.347656 C 85.453125 204.292969 85.53125 204.242188 85.617188 204.195312 C 86.117188 204.332031 86.621094 204.464844 87.144531 204.59375 C 87.003906 204.984375 86.863281 205.375 86.777344 205.777344 C 86.757812 205.871094 86.84375 205.992188 86.953125 205.953125 C 87.023438 205.925781 87.078125 205.886719 87.140625 205.847656 C 87.132812 205.960938 87.136719 206.070312 87.128906 206.183594 C 87.113281 206.359375 87.394531 206.390625 87.433594 206.222656 C 87.496094 205.945312 87.539062 205.664062 87.589844 205.386719 C 87.703125 205.199219 87.785156 204.984375 87.851562 204.765625 C 88.390625 204.886719 88.941406 205.011719 89.5 205.121094 C 89.53125 205.472656 89.5625 205.828125 89.585938 206.183594 Z M 112.105469 208.429688 C 112.179688 208.65625 112.246094 208.878906 112.335938 209.09375 C 112.179688 209.347656 111.878906 209.667969 111.425781 210.078125 C 110.308594 211.089844 109.050781 211.792969 107.675781 212.320312 C 107.832031 212.171875 107.980469 212.019531 108.113281 211.851562 C 108.226562 211.710938 108.128906 211.429688 107.914062 211.511719 C 106.171875 212.179688 104.558594 212.707031 102.925781 213.085938 C 102.898438 213.046875 102.863281 213.015625 102.796875 213.019531 C 100.765625 213.148438 98.726562 213.226562 96.6875 213.28125 C 96.144531 213.132812 95.609375 212.949219 95.097656 212.710938 C 94.964844 212.648438 94.859375 212.828125 94.984375 212.914062 C 95.183594 213.054688 95.394531 213.179688 95.609375 213.304688 C 95.136719 213.3125 94.660156 213.332031 94.1875 213.335938 C 93.867188 213.335938 93.074219 213.34375 92.105469 213.308594 C 91.292969 213.179688 90.484375 213.039062 89.679688 212.875 C 88.789062 212.695312 87.914062 212.457031 87.042969 212.207031 C 86.800781 212.132812 86.5625 212.058594 86.320312 211.980469 C 86.273438 211.941406 86.214844 211.910156 86.167969 211.867188 C 86.140625 211.800781 86.128906 211.730469 86.121094 211.660156 C 86.601562 211.722656 87.152344 211.804688 87.285156 211.804688 C 87.40625 211.800781 87.40625 211.617188 87.285156 211.613281 C 86.890625 211.617188 86.5 211.605469 86.109375 211.582031 C 86.109375 211.316406 86.253906 211.007812 86.597656 210.65625 C 86.664062 210.585938 86.5625 210.488281 86.492188 210.550781 C 86.128906 210.898438 85.90625 211.207031 85.785156 211.488281 C 85.300781 210.949219 84.964844 210.332031 84.894531 209.640625 C 85.476562 209.089844 86.398438 208.800781 87.3125 208.820312 C 89.453125 209.386719 91.921875 209.816406 94.058594 209.628906 C 95.277344 209.910156 96.496094 210.148438 97.722656 210.308594 C 100.964844 210.742188 105.582031 211.355469 108.433594 209.289062 C 108.601562 209.167969 108.503906 208.902344 108.289062 208.949219 C 104.066406 209.863281 100.226562 209.863281 96.15625 209.1875 C 96.617188 209.015625 97.039062 208.789062 97.417969 208.511719 C 97.957031 208.582031 98.355469 208.628906 98.496094 208.640625 C 101.597656 208.964844 105.875 209.199219 109.292969 208.058594 C 109.761719 208.101562 110.238281 208.125 110.710938 208.132812 C 110.746094 208.210938 110.808594 208.273438 110.921875 208.277344 C 111.476562 208.296875 111.851562 208.347656 112.105469 208.429688 Z M 86.78125 213.75 C 85.8125 213.617188 84.964844 213.128906 84.496094 211.992188 C 84.285156 211.484375 84.246094 211.03125 84.328125 210.636719 C 84.453125 210.917969 84.621094 211.195312 84.808594 211.457031 L 84.769531 211.453125 C 84.496094 211.414062 84.265625 211.792969 84.5625 211.9375 C 84.9375 212.113281 85.320312 212.273438 85.703125 212.433594 C 85.800781 212.515625 85.898438 212.605469 86 212.683594 C 86.199219 212.882812 86.484375 213.050781 86.808594 213.195312 C 86.976562 213.28125 87.152344 213.339844 87.324219 213.40625 C 87.121094 213.480469 86.941406 213.597656 86.78125 213.75 Z M 88.339844 217.390625 C 87.335938 216.890625 86.519531 216.179688 86.605469 215.316406 C 86.695312 215.527344 86.804688 215.734375 86.914062 215.902344 C 87.265625 216.453125 87.765625 216.957031 88.339844 217.390625 Z M 84.140625 207.160156 C 83.984375 207.105469 84.328125 206.328125 84.625 205.71875 C 85.449219 206.613281 87.359375 207.535156 88.792969 208.066406 C 89.363281 208.28125 89.949219 208.472656 90.535156 208.664062 C 89.800781 208.574219 89.066406 208.457031 88.347656 208.320312 C 87.308594 208.125 86.292969 207.835938 85.285156 207.519531 C 85.214844 207.414062 85.089844 207.367188 84.964844 207.421875 C 84.6875 207.332031 84.410156 207.253906 84.140625 207.160156 Z M 86.800781 202.855469 L 86.808594 202.925781 C 86.910156 203.136719 87.046875 203.316406 87.191406 203.496094 C 87.195312 203.695312 87.195312 203.894531 87.195312 204.09375 C 86.902344 204.023438 86.613281 203.949219 86.324219 203.878906 C 86.53125 203.804688 86.742188 203.742188 86.941406 203.703125 C 87.074219 203.675781 87.015625 203.480469 86.886719 203.503906 C 86.464844 203.570312 86.117188 203.652344 85.804688 203.738281 C 86.09375 203.378906 86.425781 203.078125 86.800781 202.855469 Z M 67.144531 166.308594 C 67.820312 167.414062 68.535156 168.492188 69.269531 169.558594 C 69.433594 170.121094 69.589844 170.6875 69.773438 171.246094 C 70.183594 172.515625 70.691406 173.757812 71.238281 174.976562 C 69.324219 172.425781 67.984375 169.460938 67.144531 166.308594 Z M 92.863281 219.203125 C 96.664062 220.503906 101.769531 220.070312 105.152344 218.296875 C 106.605469 218.136719 107.984375 217.867188 109.1875 217.492188 C 109.28125 218.777344 105.976562 219.839844 103.617188 220.429688 C 103.574219 220.398438 103.519531 220.382812 103.457031 220.414062 C 103.359375 220.457031 103.261719 220.496094 103.164062 220.539062 C 102.363281 220.726562 101.722656 220.851562 101.453125 220.898438 C 97.898438 221.515625 93.039062 221.90625 89.910156 219.742188 C 89.832031 219.6875 89.746094 219.808594 89.8125 219.871094 C 92 222.097656 95.664062 222.414062 99.109375 222.089844 C 98.203125 222.371094 97.285156 222.625 96.335938 222.804688 C 94.71875 223.101562 92.972656 223.101562 91.460938 222.410156 C 90.644531 222.039062 90.21875 221.242188 89.734375 220.546875 C 89.046875 219.554688 89.757812 219.15625 90.542969 218.96875 C 91.292969 219.125 92.082031 219.207031 92.863281 219.203125 Z M 96.816406 218.089844 C 98.257812 218.335938 99.878906 218.46875 101.53125 218.480469 C 99.300781 219.042969 96.914062 219.285156 94.734375 218.988281 C 95.492188 218.808594 96.195312 218.507812 96.816406 218.089844 Z M 131.746094 157.179688 C 131.734375 157.007812 131.476562 157.003906 131.476562 157.179688 C 131.476562 157.425781 131.460938 157.660156 131.457031 157.902344 C 131.292969 151.726562 129.132812 145.683594 126.253906 140.269531 C 126.21875 140.203125 126.183594 140.140625 126.148438 140.074219 C 125.144531 136.277344 123.957031 132.519531 122.847656 128.785156 C 125.96875 131.71875 128.203125 135.507812 130.003906 139.570312 C 130.074219 139.726562 130.316406 139.613281 130.273438 139.457031 C 127.5625 129.585938 119.539062 123.886719 110.402344 122.5 C 106.113281 119.921875 100.394531 120.671875 95.777344 121.871094 C 92.988281 122.59375 90.253906 123.652344 87.652344 124.976562 C 84.238281 125.996094 81.035156 127.714844 78.214844 130.25 C 72.980469 134.964844 70.257812 141.710938 69.402344 148.601562 C 69.230469 149.015625 69.058594 149.4375 68.90625 149.867188 C 68.828125 150.082031 68.769531 150.292969 68.699219 150.503906 C 68.660156 150.457031 68.570312 150.449219 68.550781 150.527344 C 68.363281 151.25 68.214844 151.964844 68.085938 152.675781 C 67.40625 155.632812 67.40625 158.371094 67.902344 160.957031 C 68.527344 165.4375 70.308594 169.714844 72.984375 173.804688 C 73.046875 173.902344 73.203125 173.8125 73.140625 173.714844 C 71.171875 170.703125 69.777344 167.6875 68.929688 164.582031 C 69.875 167.066406 71.230469 169.417969 72.828125 171.703125 C 73.800781 173.820312 74.75 175.949219 75.492188 178.160156 C 73.753906 175.519531 71.867188 172.976562 70.0625 170.386719 C 67.835938 164.046875 66.832031 156.957031 67.859375 150.289062 C 67.875 150.207031 67.75 150.171875 67.734375 150.253906 C 66.710938 156.46875 67.410156 162.945312 69.105469 169.007812 C 68.371094 167.921875 67.652344 166.820312 66.980469 165.691406 C 65.230469 158.496094 66.046875 150.398438 68.71875 143.941406 C 68.757812 143.847656 68.59375 143.777344 68.550781 143.871094 C 64.292969 153.355469 63.640625 169.824219 72.410156 177.355469 C 73.050781 178.542969 73.734375 179.707031 74.503906 180.816406 C 76.101562 183.125 78.535156 186.078125 81.320312 186.941406 C 81.441406 186.980469 81.539062 186.886719 81.5625 186.78125 C 81.792969 187.15625 82.023438 187.527344 82.257812 187.898438 C 83.449219 189.765625 84.53125 191.542969 85.46875 193.371094 C 85.894531 194.824219 86.367188 196.273438 86.84375 197.714844 C 87 199.253906 87.113281 200.800781 87.164062 202.355469 C 86.421875 202.546875 85.808594 203.007812 85.289062 203.617188 C 84.988281 203.542969 84.683594 203.472656 84.386719 203.394531 C 84.117188 203.320312 84.003906 203.730469 84.269531 203.8125 C 84.5 203.878906 84.742188 203.945312 84.976562 204.011719 L 84.949219 204.058594 C 84.324219 204.375 84.140625 204.75 84.277344 205.152344 C 83.921875 205.800781 83.609375 206.484375 83.320312 207.132812 C 83.230469 207.328125 83.304688 207.507812 83.507812 207.585938 C 83.796875 207.699219 84.117188 207.820312 84.472656 207.949219 C 84.144531 208.441406 84.023438 208.980469 84.054688 209.511719 C 83.5 210.234375 83.425781 211.246094 83.648438 212.09375 C 84.039062 213.5625 85.164062 214.332031 86.433594 214.542969 L 86.433594 214.554688 C 85.402344 215.972656 86.558594 217.433594 88.355469 218.257812 C 88.839844 218.480469 89.375 218.65625 89.9375 218.808594 C 89.410156 218.917969 88.96875 219.125 88.925781 219.53125 C 88.757812 221.085938 90.3125 222.582031 91.59375 223.191406 C 94.507812 224.566406 99.078125 223.363281 102.125 221.65625 C 102.925781 221.503906 103.683594 221.335938 104.363281 221.171875 C 105.476562 220.898438 109.140625 219.730469 109.996094 218.191406 C 110.097656 218.386719 110.199219 218.585938 110.304688 218.78125 C 110.550781 219.230469 110.765625 219.734375 111.261719 219.933594 C 111.339844 219.964844 111.417969 219.886719 111.417969 219.8125 C 111.429688 219.335938 111.128906 219.011719 110.878906 218.621094 C 110.648438 218.261719 110.402344 217.902344 110.179688 217.53125 C 110.179688 217.410156 110.15625 217.285156 110.113281 217.164062 C 110.160156 217.144531 110.207031 217.121094 110.253906 217.101562 C 110.757812 217.394531 111.101562 217.742188 111.210938 218.363281 C 111.226562 218.464844 111.371094 218.429688 111.378906 218.339844 C 111.453125 217.675781 111.121094 217.265625 110.632812 216.941406 C 113.167969 215.773438 114.351562 213.917969 112.539062 211.257812 C 112.433594 211.105469 112.214844 211.203125 112.246094 211.382812 C 112.640625 213.628906 112.382812 215.269531 110.191406 216.34375 C 110.039062 216.417969 109.875 216.480469 109.714844 216.542969 L 109.628906 216.464844 L 109.621094 216.449219 C 109.597656 216.386719 109.546875 216.355469 109.492188 216.339844 C 109.421875 216.277344 109.367188 216.214844 109.28125 216.152344 C 108.910156 215.875 108.464844 216.476562 108.792969 216.78125 L 108.851562 216.84375 C 108.160156 217.046875 107.441406 217.183594 106.714844 217.269531 C 107.109375 216.945312 107.464844 216.601562 107.757812 216.222656 C 107.871094 216.074219 107.652344 215.878906 107.507812 215.972656 C 106.710938 216.492188 105.765625 216.980469 104.730469 217.417969 C 104.277344 217.433594 103.828125 217.441406 103.390625 217.453125 C 99.5625 217.519531 95.816406 216.925781 92.117188 216.011719 C 92 215.984375 91.914062 216.128906 92 216.214844 C 92.71875 216.949219 94.109375 217.515625 95.847656 217.902344 C 95.144531 218.128906 94.421875 218.273438 93.6875 218.332031 C 93.691406 218.265625 93.652344 218.203125 93.5625 218.207031 C 92.839844 218.234375 92.09375 218.140625 91.371094 217.953125 C 90.226562 217.351562 89.238281 216.5 88.5 215.328125 C 88.410156 215.1875 88.222656 215.308594 88.285156 215.457031 C 88.578125 216.128906 89.015625 216.707031 89.527344 217.222656 C 88.707031 216.761719 87.980469 216.152344 87.441406 215.394531 C 87.222656 215.09375 87.144531 214.832031 87.152344 214.605469 C 87.898438 214.601562 88.648438 214.402344 89.320312 214.046875 C 89.367188 214.050781 89.414062 214.054688 89.460938 214.0625 C 89.539062 214.074219 89.628906 214.042969 89.644531 213.957031 L 89.65625 213.878906 C 89.882812 213.902344 90.097656 213.929688 90.277344 213.945312 C 90.632812 213.980469 91 214.007812 91.363281 214.039062 C 93.230469 214.375 95.121094 214.566406 96.992188 214.660156 C 98.296875 214.722656 99.941406 214.738281 101.605469 214.5625 C 104.84375 214.449219 108.210938 213.375 110.484375 211.914062 C 111.117188 211.507812 112.128906 210.855469 112.859375 210.082031 C 113.203125 210.625 113.628906 211.105469 114.15625 211.496094 C 114.308594 211.605469 114.496094 211.394531 114.40625 211.246094 C 114.011719 210.621094 113.707031 209.960938 113.457031 209.285156 C 113.625 208.980469 113.738281 208.671875 113.738281 208.351562 C 113.738281 208.253906 113.707031 208.1875 113.6875 208.109375 C 113.753906 208.105469 113.816406 208.105469 113.878906 208.105469 C 114.128906 208.105469 114.292969 207.90625 114.308594 207.675781 C 114.105469 207.660156 113.90625 207.628906 113.699219 207.554688 C 113.429688 207.476562 113.175781 207.363281 112.914062 207.265625 L 112.863281 207.265625 L 112.859375 207.242188 C 112.644531 207.164062 112.429688 207.097656 112.21875 207.003906 C 112.117188 206.960938 112.023438 206.90625 111.933594 206.851562 C 112.882812 205.78125 113.261719 204.007812 112.449219 202.929688 C 112.429688 200.015625 112.246094 197.109375 112.695312 194.210938 L 112.664062 194.203125 C 112.164062 197.066406 112.324219 199.925781 112.351562 202.816406 C 112.304688 202.761719 112.265625 202.699219 112.210938 202.648438 C 111.445312 201.957031 109.527344 202.375 108.632812 202.4375 C 106.8125 202.5625 105.054688 203.28125 103.277344 203.714844 C 102.988281 203.75 102.699219 203.78125 102.410156 203.816406 C 102.226562 203.871094 102.046875 203.925781 101.855469 203.964844 C 99.945312 204.347656 98.058594 203.925781 96.148438 203.785156 C 95.667969 203.75 95.253906 203.613281 94.902344 203.414062 C 94.210938 203.359375 93.519531 203.296875 92.824219 203.234375 C 92.589844 203.210938 92.371094 203.164062 92.167969 203.101562 C 92.03125 203.09375 91.890625 203.09375 91.753906 203.078125 C 91.820312 203.054688 91.886719 203.035156 91.953125 203.011719 C 91.730469 202.921875 91.527344 202.808594 91.347656 202.671875 C 91.066406 202.738281 90.789062 202.792969 90.507812 202.871094 C 90.144531 202.976562 90.152344 203.488281 90.507812 203.597656 C 93.796875 204.621094 97.296875 204.988281 100.75 204.972656 C 100.003906 205.089844 99.234375 205.1875 98.425781 205.238281 C 95.6875 205.417969 92.921875 205.171875 90.199219 204.699219 C 90.394531 198.046875 88.828125 192.015625 86.039062 185.882812 C 84.792969 183.152344 83.222656 181.121094 81.03125 179.101562 C 79.609375 177.792969 78.1875 176.53125 76.96875 175.101562 C 76.742188 174.773438 76.515625 174.441406 76.289062 174.109375 L 76.300781 174.089844 C 76.195312 173.953125 76.097656 173.8125 75.992188 173.675781 C 75.679688 173.21875 75.367188 172.761719 75.058594 172.304688 C 74.921875 172.027344 74.777344 171.757812 74.660156 171.464844 C 74.601562 171.324219 74.488281 171.28125 74.375 171.277344 C 72.988281 169.164062 71.730469 166.992188 70.804688 164.671875 C 71.332031 165.578125 71.96875 166.429688 72.71875 167.226562 C 72.761719 167.6875 72.804688 168.148438 72.84375 168.601562 C 72.847656 168.644531 72.914062 168.648438 72.914062 168.601562 C 72.894531 168.195312 72.871094 167.78125 72.847656 167.367188 C 73.171875 167.699219 73.511719 168.027344 73.882812 168.339844 C 74.023438 168.457031 74.230469 168.257812 74.089844 168.128906 C 73.621094 167.699219 73.199219 167.253906 72.8125 166.785156 C 72.417969 160.601562 71.554688 153.769531 72.140625 147.359375 C 72.230469 146.902344 72.320312 146.445312 72.425781 145.992188 C 73.570312 143.945312 74.96875 142.039062 76.558594 140.28125 C 74.65625 144.085938 73.566406 148.304688 73.542969 152.757812 C 73.542969 152.855469 73.6875 152.855469 73.691406 152.757812 C 73.769531 147.808594 75.199219 143.242188 77.566406 139.226562 C 82.367188 134.347656 88.660156 130.757812 94.988281 128.804688 C 99.613281 127.375 104.574219 126.925781 109.335938 127.855469 C 112.789062 129.417969 115.714844 131.949219 118.230469 135.160156 C 118.3125 135.265625 118.480469 135.125 118.414062 135.015625 C 116.5625 132.117188 114.242188 129.949219 111.578125 128.425781 C 116.421875 129.960938 120.054688 133.292969 122.851562 137.5625 C 123.53125 138.601562 124.160156 139.671875 124.757812 140.75 C 125.035156 141.359375 125.308594 141.972656 125.566406 142.59375 C 126.039062 143.726562 126.492188 144.894531 126.921875 146.078125 C 127.578125 149.335938 128.019531 152.648438 128.050781 156.074219 C 128.132812 164.984375 124.574219 172.484375 121.707031 180.566406 C 120.78125 182.105469 119.902344 183.65625 119.117188 185.242188 C 118.167969 186.855469 117.289062 188.492188 116.519531 190.164062 C 116.523438 190.035156 116.546875 189.914062 116.550781 189.789062 C 116.558594 189.609375 116.394531 189.515625 116.242188 189.53125 C 116.269531 189.4375 116.300781 189.34375 116.332031 189.246094 C 116.351562 189.183594 116.25 189.15625 116.230469 189.21875 C 116.183594 189.347656 116.140625 189.476562 116.09375 189.605469 L 116.046875 189.648438 C 115.238281 191.140625 114.820312 192.742188 114.515625 194.367188 C 114.023438 195.957031 113.570312 197.554688 113.160156 199.160156 C 113.132812 199.257812 113.28125 199.300781 113.308594 199.203125 C 113.59375 198.085938 113.914062 196.980469 114.25 195.878906 C 114.128906 196.605469 114.019531 197.335938 113.886719 198.0625 C 113.738281 198.492188 113.59375 198.921875 113.457031 199.351562 C 113.425781 199.367188 113.402344 199.390625 113.390625 199.425781 C 113.261719 199.976562 113.070312 200.484375 112.960938 201.039062 C 112.894531 201.390625 113.414062 201.542969 113.503906 201.191406 C 113.59375 200.820312 113.703125 200.449219 113.808594 200.082031 C 114.0625 199.460938 114.261719 198.820312 114.417969 198.164062 C 114.640625 197.515625 114.867188 196.871094 115.089844 196.222656 C 115.25 196.25 115.410156 196.273438 115.570312 196.300781 C 115.761719 195.523438 115.972656 194.746094 116.226562 193.984375 C 116.113281 194.773438 116.050781 195.574219 116.015625 196.390625 C 116.117188 196.414062 116.21875 196.4375 116.320312 196.464844 C 116.617188 194.078125 117.203125 191.820312 118.011719 189.652344 C 119.414062 186.738281 121.136719 183.9375 122.882812 181.203125 C 126.25 175.929688 129.339844 170.945312 130.722656 165.023438 C 131.484375 162.503906 131.902344 159.890625 131.746094 157.179688 " fill-opacity="1" fill-rule="nonzero"/></g><g fill="#ffffff" fill-opacity="1"><g transform="translate(132.498197, 212.901947)"><g><path d="M 18.980469 -24.757812 C 22.4375 -24.757812 20.710938 -28.175781 20.710938 -29.902344 C 20.710938 -30.789062 19.824219 -31.632812 19.824219 -31.632812 L 11.21875 -31.632812 C 7.761719 -30.789062 4.34375 -30.789062 0.886719 -29.902344 C 0.886719 -29.902344 0.886719 -28.175781 0.886719 -28.175781 L 4.34375 -28.175781 C 4.34375 -25.644531 4.34375 -23.027344 4.34375 -20.457031 L 4.34375 -17.039062 C 4.34375 -13.582031 4.34375 -11.007812 4.34375 -8.394531 L 4.34375 -6.664062 C 4.34375 -1.433594 5.230469 2.785156 4.34375 7.929688 C 3.5 7.929688 1.769531 7.929688 0.886719 7.929688 L 0.886719 9.660156 C 6.03125 10.542969 10.375 10.542969 14.636719 10.542969 L 18.980469 10.542969 C 19.824219 9.660156 20.710938 8.816406 20.710938 7.929688 C 20.710938 6.199219 20.710938 3.667969 18.980469 3.667969 C 17.25 4.511719 18.980469 7.085938 17.25 7.929688 C 14.636719 7.929688 12.949219 7.929688 10.375 7.085938 C 10.375 5.398438 10.121094 2.066406 10.121094 -0.546875 C 10.121094 -3.078125 9.488281 -6.664062 10.375 -9.277344 C 11.21875 -9.277344 13.835938 -9.277344 14.636719 -9.277344 L 14.636719 -8.394531 C 14.636719 -7.550781 16.363281 -6.664062 16.363281 -6.664062 C 18.09375 -6.664062 16.363281 -11.894531 17.25 -13.582031 C 16.363281 -14.425781 16.363281 -14.425781 15.519531 -14.425781 C 14.636719 -14.425781 14.636719 -12.695312 14.636719 -11.894531 C 12.949219 -11.894531 10.375 -11.894531 9.488281 -12.695312 C 10.375 -14.425781 9.488281 -16.152344 9.488281 -18.769531 C 9.488281 -20.457031 9.617188 -21.722656 9.617188 -24.125 C 9.617188 -26.066406 9.488281 -27.375 10.375 -28.175781 C 12.105469 -29.058594 14.636719 -29.058594 16.363281 -29.058594 C 17.25 -28.640625 17.25 -28.640625 18.09375 -28.175781 C 18.980469 -27.375 18.09375 -25.644531 18.980469 -24.757812 Z M 18.980469 -24.757812 "/></g></g></g><g fill="#ffffff" fill-opacity="1"><g transform="translate(154.425772, 212.901947)"><g><path d="M 18.601562 -12.90625 C 18.601562 -13.835938 17.671875 -13.835938 17.671875 -14.71875 L 18.601562 -15.648438 C 19.445312 -16.492188 20.75 -18.050781 21.257812 -19.273438 C 22.269531 -21.722656 21.679688 -24.757812 21.257812 -26.488281 C 19.992188 -31.71875 12.230469 -31.929688 6.75 -31 C 5.90625 -31 5.609375 -30.496094 4.722656 -30.496094 C 1.980469 -30.496094 0.800781 -30.453125 0.800781 -27.796875 C 0.800781 -26.867188 2.320312 -26.488281 4.089844 -26.488281 C 4.089844 -21.933594 4.640625 -19.105469 4.386719 -15.269531 C 4.300781 -14.003906 4.089844 -13.835938 4.089844 -12.90625 C 5.019531 -11.136719 4.089844 -9.277344 4.089844 -7.507812 L 4.089844 7.886719 C 3.164062 7.886719 2.320312 7.886719 1.390625 8.730469 C 2.320312 10.585938 3.164062 10.585938 5.019531 10.585938 C 6.75 9.660156 10.585938 10.332031 12.359375 10.332031 C 13.242188 10.332031 13.117188 9.660156 13.117188 8.730469 C 13.117188 7.886719 11.304688 7.886719 11.304688 7 C 10.460938 5.144531 10.460938 3.375 10.460938 1.519531 C 10.460938 -2.066406 9.53125 -7.507812 10.460938 -12.0625 C 10.460938 -12.90625 11.304688 -12.90625 12.230469 -12.90625 C 13.117188 -12.0625 14.046875 -12.0625 14.046875 -11.136719 C 14.972656 -10.207031 15.140625 -9.699219 15.816406 -8.730469 C 17.925781 -5.652344 17.039062 -1.8125 17.589844 1.601562 C 18.515625 7.085938 15.941406 8.476562 17.800781 10.25 C 20.371094 10.542969 24.082031 11.175781 24.082031 8.476562 C 24.082031 7.59375 23.238281 7.59375 22.3125 7.59375 C 21.382812 1.222656 22.183594 -8.351562 18.601562 -12.90625 Z M 9.617188 -28.21875 C 10.460938 -28.21875 13.117188 -28.300781 14.046875 -28.300781 C 14.972656 -27.414062 15.816406 -26.824219 15.816406 -25.558594 C 15.816406 -23.789062 16.152344 -23.957031 15.816406 -21.933594 C 15.605469 -20.710938 14.972656 -19.273438 14.972656 -18.347656 C 14.046875 -17.417969 9.996094 -15.859375 9.953125 -17.082031 C 9.742188 -21.46875 9.617188 -24.589844 9.617188 -28.21875 Z M 9.617188 -28.21875 "/></g></g></g><g fill="#ffffff" fill-opacity="1"><g transform="translate(179.473815, 212.901947)"><g><path d="M 8.898438 -28.46875 C 10.585938 -28.46875 11.472656 -30.199219 10.585938 -31.085938 C 8.898438 -31.929688 5.441406 -31.085938 3.667969 -31.085938 C 1.980469 -31.085938 1.097656 -31.929688 1.097656 -31.085938 L 1.097656 -29.355469 C 1.097656 -28.46875 1.980469 -28.46875 2.785156 -28.46875 C 2.785156 -23.28125 2.785156 -18.09375 2.785156 -13.75 L 2.785156 -5.945312 C 2.785156 -5.0625 2.910156 -3.921875 2.910156 -3.921875 C 2.910156 -1.351562 2.785156 0.96875 2.785156 3.628906 C 2.785156 4.511719 3.667969 6.199219 2.785156 7.085938 C 1.980469 7.972656 1.097656 7.085938 1.097656 7.972656 C 0.210938 8.773438 1.097656 9.660156 1.097656 9.660156 C 3.667969 10.542969 7.128906 9.660156 8.898438 10.542969 C 9.785156 9.660156 10.585938 9.660156 10.585938 8.773438 C 9.785156 7.972656 8.898438 7.972656 8.015625 7.085938 C 8.015625 -2.488281 8.605469 -11.9375 8.898438 -20.667969 C 8.984375 -23.28125 8.015625 -25.898438 8.898438 -28.46875 Z M 8.898438 -28.46875 "/></g></g></g><g fill="#ffffff" fill-opacity="1"><g transform="translate(191.280975, 212.901947)"><g><path d="M 18.9375 -28.046875 C 20.625 -28.046875 21.511719 -30.621094 18.9375 -31.464844 C 17.25 -30.621094 14.679688 -31.464844 13.792969 -29.777344 C 13.792969 -28.933594 14.679688 -28.933594 14.679688 -28.046875 L 16.40625 -28.046875 C 16.40625 -26.320312 15.519531 -24.675781 15.519531 -22.945312 C 14.679688 -19.527344 12.949219 -16.113281 9.53125 -15.269531 C 8.6875 -16.113281 9.53125 -17.800781 9.53125 -18.683594 C 9.53125 -22.058594 8.6875 -24.675781 8.6875 -28.046875 C 9.53125 -28.933594 10.417969 -28.933594 10.417969 -29.777344 C 10.417969 -32.308594 5.988281 -31.464844 4.261719 -31.464844 C 2.53125 -31.464844 1.519531 -31.972656 0.929688 -31.378906 C 0.335938 -30.789062 0.167969 -28.933594 1.011719 -28.933594 C 1.011719 -28.046875 1.898438 -28.046875 2.699219 -28.046875 L 2.699219 -25.515625 C 3.585938 -21.214844 3.585938 -15.269531 3.585938 -10.164062 C 3.585938 -8.4375 2.699219 -6.707031 2.699219 -5.90625 L 2.785156 -5.101562 C 2.785156 -4.21875 2.699219 -4.175781 2.699219 -4.175781 C 2.699219 -1.601562 2.699219 0.929688 2.699219 2.65625 L 2.699219 6.917969 C 2.699219 7.761719 1.898438 7.761719 1.011719 8.644531 C 1.011719 9.449219 1.011719 9.449219 1.898438 10.332031 C 4.429688 11.175781 6.15625 9.449219 8.6875 10.332031 C 10.417969 9.449219 9.53125 7.761719 7.804688 6.917969 L 7.804688 3.542969 C 7.804688 1.8125 8.6875 0.929688 8.6875 -0.800781 C 8.6875 -4.175781 7.804688 -9.277344 9.53125 -11.007812 C 11.261719 -11.851562 12.949219 -11.851562 14.679688 -11.007812 C 16.40625 -10.164062 17.25 -6.707031 17.25 -4.175781 C 17.25 -4.175781 17.25 -3.332031 17.25 -3.332031 L 17.25 1.8125 C 17.25 3.542969 18.050781 5.1875 17.25 6.917969 L 15.519531 8.644531 C 15.519531 8.644531 15.015625 9.449219 15.859375 10.332031 C 17.546875 10.332031 21.132812 10.207031 23.703125 10.207031 C 23.703125 10.207031 24.292969 9.363281 24.292969 8.5625 C 24.292969 7.675781 22.355469 6.917969 22.355469 6.074219 C 21.511719 5.1875 22.355469 3.542969 22.355469 1.8125 C 21.511719 -2.445312 21.511719 -7.59375 18.9375 -11.007812 C 18.050781 -11.851562 16.40625 -12.695312 15.519531 -13.539062 C 14.679688 -13.539062 14.679688 -13.539062 14.679688 -14.425781 C 15.519531 -16.113281 16.40625 -17.800781 17.25 -19.527344 C 18.050781 -22.058594 18.9375 -24.675781 18.9375 -28.046875 Z M 18.9375 -28.046875 "/></g></g></g><g fill="#ffffff" fill-opacity="1"><g transform="translate(216.708535, 212.901947)"><g><path d="M 16.40625 -10.460938 C 17.335938 -11.21875 19.273438 -10.460938 19.273438 -11.21875 C 19.273438 -12.695312 17.335938 -12.695312 16.40625 -13.414062 C 14.46875 -13.414062 11.515625 -13.414062 8.644531 -12.695312 L 1.898438 -12.695312 C 1.898438 -11.9375 1.898438 -11.21875 2.824219 -10.460938 C 6.707031 -9.742188 11.515625 -11.21875 16.40625 -10.460938 Z M 16.40625 -10.460938 "/></g></g></g><g fill="#ffffff" fill-opacity="1"><g transform="translate(237.877075, 212.901947)"><g><path d="M 23.832031 -23.914062 C 23.832031 -26.488281 24.675781 -31.632812 22.101562 -31.632812 C 21.257812 -31.632812 20.371094 -31.632812 18.683594 -31.632812 L 1.476562 -31.632812 C 0.632812 -30.746094 0.632812 -29.902344 1.476562 -29.058594 C 2.363281 -28.175781 4.050781 -29.058594 5.777344 -29.058594 C 6.621094 -27.332031 5.777344 -24.757812 5.777344 -23.070312 C 5.777344 -20.5 6.621094 -16.996094 6.621094 -14.425781 C 6.621094 -12.738281 5.777344 -11.851562 5.777344 -11.007812 C 6.621094 -9.277344 5.777344 -8.4375 5.777344 -6.707031 L 5.777344 0.125 C 4.933594 2.742188 5.777344 6.15625 4.050781 7.042969 C 4.050781 7.042969 3.207031 7.042969 2.363281 7.886719 C 2.363281 8.730469 2.363281 9.617188 3.207031 9.617188 C 4.050781 9.617188 5.777344 10.460938 6.621094 10.460938 C 8.351562 10.460938 9.195312 9.617188 10.121094 9.617188 C 10.964844 9.617188 11.769531 10.460938 11.769531 9.617188 C 14.382812 9.617188 11.769531 7.042969 10.964844 7.042969 C 10.121094 5.3125 10.121094 3.585938 10.121094 1.898438 L 10.121094 -0.675781 C 10.121094 -2.445312 10.121094 -5.019531 10.964844 -6.707031 C 10.964844 -9.277344 10.121094 -11.007812 11.769531 -12.738281 C 12.609375 -12.738281 13.539062 -12.738281 14.382812 -11.851562 L 14.382812 -10.164062 C 16.113281 -10.164062 16.113281 -10.164062 16.957031 -11.007812 C 16.957031 -13.582031 18.011719 -18.9375 14.382812 -18.726562 C 14.382812 -17.882812 14.382812 -16.152344 14.382812 -15.308594 L 11.769531 -15.308594 C 10.964844 -16.152344 11.769531 -17.882812 11.769531 -18.726562 C 11.769531 -22.144531 10.964844 -26.488281 11.769531 -28.175781 C 14.382812 -29.058594 17.800781 -29.058594 21.257812 -29.058594 C 21.257812 -26.488281 21.257812 -24.757812 22.101562 -23.070312 C 22.945312 -23.070312 23.832031 -23.070312 23.832031 -23.914062 Z M 23.832031 -23.914062 "/></g></g></g><g fill="#ffffff" fill-opacity="1"><g transform="translate(262.629934, 212.901947)"><g><path d="M 12.148438 -30.367188 C 12.148438 -31.378906 12.316406 -31.464844 11.472656 -31.550781 C 8.730469 -31.886719 5.144531 -31.210938 2.574219 -31.210938 C 2.574219 -31.210938 1.644531 -31.210938 1.644531 -31.210938 L 1.644531 -29.441406 C 2.574219 -28.597656 3.417969 -28.597656 3.417969 -27.753906 C 4.300781 -25.097656 4.300781 -21.636719 4.300781 -18.9375 C 4.300781 -16.363281 4.300781 -13.75 4.300781 -11.136719 L 4.300781 -10.207031 C 4.300781 -5.863281 4.300781 0.253906 3.417969 4.640625 C 3.417969 6.410156 3.417969 7.253906 2.574219 8.140625 C 1.644531 8.140625 0.800781 8.140625 0.800781 8.984375 C 0.800781 9.910156 1.644531 9.910156 2.574219 10.753906 C 6.917969 9.910156 12.148438 10.753906 17.417969 9.910156 C 18.261719 8.984375 17.417969 7.253906 17.417969 6.410156 C 17.417969 3.796875 18.261719 0.253906 16.574219 -1.476562 C 16.574219 -1.476562 15.648438 -2.320312 14.804688 -1.476562 L 14.804688 2.023438 C 14.804688 3.796875 14.804688 5.484375 14.804688 7.253906 L 13.875 7.253906 C 12.820312 7.296875 12.148438 7.253906 12.148438 7.253906 C 11.304688 7.253906 11.347656 7.296875 10.460938 7.253906 C 9.488281 7.210938 9.53125 7.253906 9.53125 6.410156 C 8.6875 -5.863281 10.460938 -16.363281 10.460938 -27.753906 C 10.460938 -28.597656 11.304688 -28.597656 12.148438 -30.367188 Z M 12.148438 -30.367188 "/></g></g></g></svg>